<?xml version="1.0" standalone="no"?>
<!DOCTYPE svg PUBLIC "-//W3C//DTD SVG 20010904//EN"
 "http://www.w3.org/TR/2001/REC-SVG-20010904/DTD/svg10.dtd">
<svg version="1.0" xmlns="http://www.w3.org/2000/svg"
 width="1280.000000pt" height="1234.000000pt" viewBox="0 0 1280.000000 1234.000000"
 preserveAspectRatio="xMidYMid meet">
<metadata>
Created by potrace 1.15, written by Peter Selinger 2001-2017
</metadata>
<g transform="translate(0.000000,1234.000000) scale(0.100000,-0.100000)"
fill="#166534" stroke="none">
<path d="M7350 12320 c-41 -11 -138 -24 -216 -29 -89 -6 -178 -19 -242 -35
-316 -81 -683 -256 -1061 -509 -218 -146 -251 -157 -501 -177 -168 -14 -196
-19 -345 -65 -156 -49 -191 -55 -333 -60 -121 -5 -125 -5 -88 10 43 17 66 33
66 46 0 20 -66 47 -139 59 -137 21 -201 79 -224 199 -11 57 -16 66 -52 91 -40
27 -41 30 -53 115 -7 48 -11 90 -8 92 3 3 22 -4 42 -16 20 -12 38 -20 40 -18
2 2 7 42 10 90 l7 86 -36 36 c-45 45 -92 47 -168 7 -43 -22 -65 -44 -109 -107
-30 -43 -67 -87 -82 -98 -24 -18 -32 -19 -67 -8 -60 17 -94 52 -140 139 -51
100 -73 121 -58 58 14 -64 7 -76 -50 -76 l-47 0 139 -95 c76 -52 132 -95 124
-95 -8 0 -215 27 -459 60 -244 33 -445 58 -448 56 -2 -3 18 -20 45 -40 94 -68
260 -118 539 -161 201 -31 244 -41 244 -59 0 -22 -39 -42 -221 -111 -210 -80
-326 -135 -357 -168 l-24 -25 70 13 c140 27 298 83 582 205 181 78 233 85 314
46 70 -34 166 -137 166 -177 0 -23 -7 -30 -42 -43 -24 -9 -104 -25 -179 -36
-332 -48 -615 -130 -669 -195 -12 -14 -11 -16 11 -11 13 3 56 8 94 11 39 4
142 15 230 25 456 55 617 68 643 52 29 -19 21 -26 -243 -198 -118 -77 -284
-242 -362 -359 -48 -72 -141 -230 -192 -325 -4 -8 -19 -22 -33 -29 -24 -14
-44 -11 -219 27 -268 58 -321 65 -488 60 -129 -4 -154 -8 -216 -32 -76 -30
-88 -30 -265 9 -127 28 -304 17 -660 -41 -289 -47 -322 -57 -272 -80 9 -5 199
-11 422 -14 437 -5 437 -5 175 -45 -216 -33 -528 -137 -780 -260 -169 -83
-512 -304 -494 -319 2 -1 267 80 589 181 322 100 589 182 594 180 5 -2 -23
-32 -61 -68 -56 -51 -108 -84 -259 -163 -104 -55 -218 -118 -254 -141 -64 -41
-166 -132 -158 -141 3 -2 60 12 129 32 68 20 300 85 514 145 215 60 396 112
403 114 26 9 -8 -32 -137 -168 -72 -75 -149 -160 -172 -189 -47 -59 -102 -163
-97 -183 4 -20 241 127 433 270 88 65 229 179 313 253 84 74 155 132 157 131
2 -2 32 -85 68 -184 56 -157 97 -310 86 -319 -2 -2 -71 -29 -154 -61 -133 -52
-207 -88 -150 -72 82 23 488 57 795 67 190 7 365 14 390 17 l45 5 -40 -36 -40
-37 -202 3 c-152 3 -203 0 -203 -8 0 -8 26 -15 68 -19 37 -4 85 -10 107 -14
l40 -7 -105 -38 c-256 -94 -481 -213 -770 -404 -203 -135 -324 -245 -364 -332
-14 -30 -23 -56 -21 -58 2 -2 108 54 236 125 189 104 1158 585 1166 579 2 -1
-2 -18 -8 -37 -27 -93 -39 -194 -40 -333 0 -132 12 -294 27 -366 l6 -25 30 35
c16 19 60 96 98 172 119 237 148 272 250 302 65 19 296 46 393 46 54 0 69 -3
74 -17 9 -24 -31 -52 -211 -145 -348 -179 -579 -367 -676 -550 -26 -48 -29
-58 -14 -50 11 5 132 69 269 143 216 115 815 402 823 394 1 -1 -63 -118 -143
-260 l-146 -259 -29 -185 c-17 -102 -33 -197 -36 -211 l-6 -25 32 30 c44 41
105 128 184 262 36 62 91 139 122 172 52 56 141 124 161 123 7 -1 54 -293 48
-300 -2 -2 -11 10 -21 26 -14 25 -26 31 -68 36 -28 4 -69 9 -91 12 l-40 6 106
-104 106 -103 47 -225 c26 -124 63 -270 83 -325 l35 -100 8 -267 c5 -147 12
-298 15 -335 6 -61 2 -84 -37 -223 l-44 -156 17 -57 c16 -55 16 -64 -7 -241
-26 -207 -63 -340 -93 -332 -9 3 -83 19 -166 36 -129 27 -208 53 -238 80 -4 3
74 35 173 70 99 34 178 65 176 67 -10 10 -314 -19 -451 -42 -189 -32 -357 -71
-411 -95 -35 -15 -49 -28 -62 -60 -44 -103 -139 -6 -255 261 -13 30 -45 78
-70 106 -53 61 -70 106 -70 188 0 65 18 111 62 158 l26 29 -25 -7 c-90 -21
-115 -21 -165 2 -27 12 -51 21 -53 19 -2 -2 16 -34 39 -71 33 -53 47 -89 64
-171 13 -57 20 -104 16 -103 -3 0 -33 32 -66 70 -50 58 -220 193 -379 301 -16
11 30 110 115 245 64 103 86 150 139 300 34 98 91 245 126 327 36 82 63 150
61 152 -1 2 -67 -52 -146 -119 l-144 -122 -117 -214 -118 -214 -7 -139 -7
-139 -26 17 c-15 10 -178 126 -362 259 -184 133 -341 245 -348 249 -29 17 17
-51 90 -134 142 -162 230 -236 506 -422 97 -65 172 -118 168 -118 -4 0 -85 22
-179 49 -341 98 -600 155 -872 192 -114 16 -222 22 -455 25 -168 2 -300 2
-295 -1 14 -7 566 -123 1000 -211 204 -41 496 -93 649 -114 154 -22 282 -44
285 -49 53 -85 92 -123 169 -167 83 -47 83 -47 122 -128 34 -73 52 -95 179
-221 77 -77 141 -143 141 -146 0 -4 -26 0 -57 7 -32 7 -200 44 -373 81 l-315
67 -630 -38 c-346 -21 -641 -40 -655 -44 -14 -3 88 -11 225 -17 350 -17 926
-58 917 -66 -4 -3 -150 -35 -326 -70 l-318 -63 -97 17 c-53 10 -217 35 -366
57 -148 22 -283 43 -300 46 -61 13 -14 -7 170 -71 176 -61 193 -68 237 -112
l48 -48 -96 -48 c-53 -27 -94 -50 -93 -52 2 -2 45 4 94 12 135 24 365 23 435
-1 61 -21 134 -55 128 -61 -1 -2 -50 4 -108 12 -69 10 -193 16 -365 17 l-260
1 -185 62 c-418 140 -788 229 -1030 248 l-85 7 45 -25 c308 -165 520 -264 800
-372 168 -65 309 -122 315 -127 5 -4 -182 -8 -416 -8 -234 0 -549 -3 -700 -7
l-274 -7 180 -28 c99 -15 411 -50 694 -78 283 -27 516 -52 518 -53 2 -2 -45
-18 -104 -36 -215 -66 -921 -309 -899 -310 4 -1 270 35 590 80 626 86 1048
141 1053 136 1 -2 -71 -38 -162 -81 -237 -110 -264 -116 -553 -113 -256 2
-305 -4 -542 -63 -178 -44 -586 -177 -650 -211 l-35 -19 50 5 c28 3 230 21
450 40 220 20 449 40 509 45 60 6 110 9 113 7 2 -2 -120 -91 -272 -197 -151
-106 -274 -195 -272 -196 2 -2 84 31 183 72 98 42 303 120 454 174 151 54 289
103 305 110 59 22 6 -10 -330 -204 l-341 -196 -135 -152 c-124 -140 -395 -478
-383 -478 12 0 514 326 856 557 334 225 396 271 550 408 l173 154 7 -37 c3
-20 23 -160 45 -309 21 -150 40 -273 43 -273 3 0 20 44 36 97 l31 98 -12 185
c-6 102 -10 186 -10 188 1 1 34 -22 72 -52 38 -30 136 -98 219 -152 82 -54
194 -131 248 -173 55 -41 97 -68 94 -60 -3 8 -22 66 -43 129 l-38 115 -110
123 -110 123 79 74 c83 77 235 169 339 205 l55 19 20 -26 c23 -29 24 -59 6
-160 l-13 -71 110 -384 c60 -210 113 -387 117 -391 4 -4 26 47 50 115 37 105
47 150 66 305 14 119 20 211 17 265 -5 75 -3 85 15 101 20 18 22 18 84 -9 43
-19 98 -59 174 -126 62 -54 114 -98 117 -98 3 0 3 8 0 18 -2 10 4 28 14 41 17
21 22 22 63 11 53 -13 81 -36 138 -111 35 -46 59 -65 149 -114 126 -67 196
-119 276 -204 91 -96 64 -135 -67 -97 -68 20 -72 20 -54 -1 31 -37 28 -38 -90
-39 -96 -1 -128 -5 -177 -24 -65 -24 -98 -46 -55 -37 68 15 275 29 364 24 149
-7 306 -73 306 -128 0 -29 -57 -51 -282 -110 -257 -67 -482 -136 -718 -221
-204 -73 -259 -97 -278 -121 -15 -18 2 -16 228 28 96 19 245 46 330 60 221 37
580 103 684 126 55 12 116 19 159 17 62 -3 72 -6 89 -29 28 -38 9 -69 -81
-131 -153 -104 -267 -192 -324 -247 -94 -91 -92 -95 25 -55 56 19 106 34 110
34 4 0 -32 -51 -81 -113 -102 -130 -168 -230 -199 -304 -12 -28 -46 -135 -76
-238 -30 -103 -62 -195 -72 -206 -33 -37 -84 -25 -268 60 -209 97 -297 132
-424 170 -151 45 -276 69 -806 157 -48 8 -90 13 -92 11 -3 -3 341 -147 878
-368 97 -40 176 -75 174 -77 -2 -2 -44 3 -92 10 -151 22 -665 16 -934 -10
-247 -25 -329 -37 -344 -52 -7 -7 13 -10 59 -10 39 0 187 -9 330 -20 323 -24
648 -40 827 -40 158 0 225 -11 288 -48 l45 -27 -35 -2 c-19 -2 -162 7 -318 20
-252 20 -299 22 -418 11 -75 -7 -137 -14 -140 -16 -5 -6 153 -33 341 -59 367
-50 523 -89 474 -120 -22 -14 -59 -11 -140 11 -191 52 -309 80 -359 85 -53 6
-43 0 221 -142 221 -118 309 -160 442 -208 91 -33 165 -61 163 -62 -1 -2 -69
-7 -150 -13 -196 -13 -329 -34 -456 -70 -58 -17 -206 -48 -328 -70 -429 -77
-598 -111 -782 -156 -201 -49 -575 -169 -655 -209 l-50 -25 70 6 c39 3 160 19
269 35 110 16 371 45 580 64 686 64 883 97 1216 207 150 50 159 52 270 52 257
0 523 -15 600 -35 145 -39 398 -182 439 -250 14 -23 19 -61 24 -192 8 -188 22
-319 42 -397 11 -43 12 -59 2 -79 -17 -35 -38 -37 -102 -7 -30 14 -55 22 -55
19 0 -10 45 -68 100 -129 36 -40 64 -83 80 -125 30 -77 49 -89 143 -89 59 0
71 3 92 25 14 13 25 33 25 45 0 11 11 43 25 70 14 27 25 60 25 74 0 14 -21 55
-46 91 -31 46 -51 90 -64 140 -19 73 -40 236 -40 297 l1 33 28 -33 c16 -18 52
-77 81 -130 56 -101 61 -110 177 -294 39 -62 91 -151 115 -198 62 -121 70
-125 273 -125 242 0 247 5 201 214 -66 303 -72 397 -31 513 29 83 31 108 9
149 -16 32 -10 73 9 66 7 -2 118 -34 247 -71 608 -173 799 -237 844 -281 38
-39 4 -140 -127 -369 -54 -94 -97 -175 -97 -182 0 -41 119 -50 188 -15 51 26
69 51 137 197 72 152 91 180 170 239 36 27 65 51 65 54 0 2 -22 1 -50 -3 -27
-4 -50 -5 -50 -3 0 2 11 31 24 65 14 34 45 133 71 220 108 368 162 483 309
651 31 36 57 72 58 80 0 9 1 36 2 61 1 38 5 46 29 58 55 26 146 33 302 23 241
-16 402 -21 380 -12 -11 5 -78 14 -150 20 -116 9 -215 32 -215 50 0 3 27 17
61 30 33 13 58 25 56 27 -2 2 -44 -5 -93 -16 -49 -11 -96 -20 -104 -20 -23 0
205 148 277 181 l65 29 171 -35 c155 -32 224 -40 702 -75 292 -22 539 -40 550
-40 38 0 -6 19 -165 70 -235 74 -409 113 -625 140 -123 15 -377 30 -389 23 -5
-4 -6 -1 -2 5 13 21 95 24 204 8 161 -25 375 -36 692 -35 319 0 328 4 130 53
-144 36 -300 55 -525 63 -243 9 -196 20 91 22 222 1 282 6 1553 121 178 16
325 31 328 34 2 2 -40 12 -94 22 -88 17 -152 19 -628 18 -585 0 -717 -7 -1140
-59 -61 -8 -83 -27 223 199 134 98 241 180 240 182 -9 9 -513 -187 -703 -273
l-220 -100 -3 32 c-2 19 19 98 53 197 44 133 56 184 61 255 7 103 -12 216 -50
299 -14 30 -24 54 -22 54 1 0 180 -52 397 -115 217 -63 398 -115 403 -115 16
0 -37 51 -94 90 -83 57 -226 126 -424 205 -198 80 -249 112 -244 152 4 35 42
61 107 73 77 14 475 12 836 -5 171 -8 364 -14 430 -14 l120 1 -175 33 c-96 18
-368 58 -605 89 -236 31 -437 58 -445 59 -8 2 1 10 20 19 19 8 49 21 65 29 21
9 94 14 238 17 114 2 207 8 207 13 0 10 -47 18 -130 22 l-65 2 45 23 45 22
-70 -6 c-38 -3 -81 -8 -95 -11 -26 -5 -12 6 137 100 104 66 126 111 71 146
-20 12 -23 12 -33 -4 -25 -45 -93 -108 -166 -155 -94 -60 -270 -147 -316 -156
-33 -6 -33 -6 -33 33 0 70 91 181 211 257 79 49 222 107 284 113 73 8 104 -11
144 -89 18 -35 57 -93 86 -129 30 -36 62 -81 73 -99 l20 -32 6 29 c13 63 25
166 37 303 l12 145 130 80 c76 47 150 85 179 91 27 7 60 15 75 19 l26 6 -6
-83 c-5 -77 23 -466 41 -563 l7 -40 51 48 c73 67 107 144 139 307 14 74 39
184 54 243 l28 108 136 -130 c102 -99 142 -131 161 -131 26 0 30 7 26 44 -4
43 9 66 39 66 46 0 185 -44 331 -105 210 -88 375 -143 389 -130 9 9 -81 95
-164 157 -112 85 -290 168 -474 223 -156 47 -217 76 -245 116 -9 13 -14 24
-13 25 1 2 108 -10 237 -26 129 -17 240 -29 245 -29 12 0 -456 129 -470 129
-6 0 -48 38 -94 84 -84 84 -84 85 -71 115 7 17 17 31 23 31 5 0 109 -20 231
-45 195 -39 274 -50 664 -85 244 -22 454 -40 465 -40 17 1 13 6 -18 22 -113
59 -340 121 -620 168 -167 28 -282 56 -272 66 2 3 211 27 463 55 345 37 531
53 752 61 161 7 286 16 278 20 -23 13 -181 36 -371 55 -127 12 -267 17 -475
16 -435 0 -684 -30 -1031 -123 -102 -28 -203 -50 -223 -50 -65 0 -141 55 -117
84 13 15 96 31 216 42 39 3 171 23 295 45 289 49 471 75 644 90 86 8 131 15
118 20 -75 28 -603 47 -812 30 -74 -6 -187 -18 -251 -27 -129 -19 -189 -14
-189 15 0 29 32 50 127 86 93 34 157 64 151 70 -2 2 -59 -9 -128 -25 -68 -16
-126 -27 -128 -25 -3 2 14 27 38 55 23 27 40 50 37 50 -3 0 -45 -18 -93 -40
l-88 -41 -32 33 c-39 41 -235 280 -231 284 1 1 164 -44 362 -102 305 -88 620
-163 633 -150 1 2 -34 35 -79 74 -76 65 -99 77 -373 200 -160 72 -322 145
-361 163 l-70 32 415 43 c228 23 427 43 443 43 16 1 27 7 27 15 0 10 -33 15
-152 20 -84 4 -223 11 -308 17 -197 11 -410 11 -525 -1 -49 -5 -90 -8 -92 -6
-2 1 59 27 134 56 76 30 142 57 146 61 19 15 -264 -23 -380 -52 -46 -11 -130
-38 -187 -60 -115 -43 -173 -49 -234 -23 -43 18 -88 58 -108 97 -50 96 -163
163 -406 242 -263 86 -387 112 -737 155 -377 47 -426 62 -614 190 -122 83
-223 129 -430 196 -81 27 -145 50 -142 52 2 2 59 12 127 22 l123 17 -50 23
c-61 28 -63 28 -165 -4 -44 -14 -85 -26 -90 -26 -5 0 3 26 17 57 21 45 27 77
31 153 4 96 -10 243 -30 312 -11 38 -62 107 -71 98 -3 -3 -24 -133 -46 -290
-23 -157 -45 -293 -49 -302 -6 -15 -22 -9 -127 48 -100 55 -150 75 -300 118
l-180 52 1 70 c2 69 2 70 102 239 l101 170 6 130 c7 149 39 336 63 378 16 28
19 28 72 22 30 -4 126 -29 213 -57 88 -27 161 -48 162 -46 2 2 -53 44 -123 93
-127 91 -270 205 -271 216 -2 18 180 88 437 169 367 116 381 125 82 53 -80
-19 -173 -37 -206 -40 -54 -5 -64 -3 -83 16 l-21 21 -92 -55 c-50 -30 -92 -55
-94 -55 -1 0 -6 25 -10 56 -9 73 36 288 83 401 35 82 35 82 66 76 75 -15 171
-43 305 -90 78 -28 142 -49 142 -48 0 6 -281 214 -377 279 l-101 69 34 79 c19
44 34 81 34 82 0 1 14 12 30 24 l30 23 158 -109 c86 -60 162 -112 169 -115 6
-4 -33 70 -88 164 -55 94 -98 173 -97 175 2 1 77 -4 167 -12 l163 -14 139 -86
c116 -72 219 -121 610 -291 259 -113 473 -202 476 -199 4 3 -32 43 -78 89 -57
57 -133 116 -234 182 -304 198 -394 259 -391 263 2 2 115 -20 250 -50 l246
-53 37 -60 c96 -157 115 -175 403 -397 151 -116 366 -290 478 -386 112 -95
206 -172 208 -169 8 8 -24 134 -52 199 -92 221 -352 525 -578 678 -59 39 -106
73 -104 75 2 2 68 -6 146 -19 78 -12 139 -19 135 -15 -5 4 -43 22 -86 40 -42
17 -76 34 -74 36 2 2 82 -24 178 -58 361 -126 456 -159 509 -173 30 -8 204
-56 385 -106 328 -91 815 -213 822 -206 15 15 -172 109 -391 195 -94 38 -270
110 -391 161 -491 207 -714 263 -1110 280 -201 9 -287 19 -302 34 -4 3 9 6 27
6 19 0 169 9 335 20 336 22 1282 70 1389 70 195 0 -96 60 -449 92 -210 19
-845 16 -1061 -5 -94 -9 -175 -17 -180 -17 -5 0 106 61 246 136 l255 135 -65
-6 c-90 -9 -282 -50 -371 -80 -41 -14 -129 -52 -196 -86 -134 -68 -194 -81
-253 -57 -49 21 -210 127 -210 139 0 19 53 29 203 36 184 8 162 14 -138 38
l-220 17 -275 104 c-151 57 -333 121 -405 143 -88 27 -136 47 -148 62 -10 12
-14 25 -10 29 22 20 173 41 398 55 138 9 293 20 345 24 l95 7 -70 13 c-114 21
-240 30 -420 31 -107 1 -163 5 -150 10 11 5 234 70 495 145 261 75 480 138
485 141 23 10 -264 -7 -435 -25 -321 -36 -399 -41 -480 -30 -108 15 -170 50
-170 98 0 44 189 279 254 315 23 13 72 40 109 61 38 20 67 38 65 39 -2 1 -36
0 -75 -3 -40 -4 -73 -5 -73 -4 0 2 51 73 114 158 69 93 138 175 172 204 l58
48 130 -62 c72 -34 253 -137 401 -228 149 -91 271 -164 273 -162 7 6 -38 83
-76 131 -93 116 -525 503 -696 623 -33 22 -57 41 -54 41 3 0 156 -14 339 -30
307 -28 1020 -81 1079 -80 20 1 14 7 -31 30 -125 64 -419 137 -839 207 -149
25 -316 32 -767 33 -20 0 -41 8 -53 20 -17 17 -19 28 -14 77 5 51 4 60 -15 77
-30 27 -102 29 -191 6z m-396 -337 c-86 -108 -104 -134 -177 -256 -43 -70 -77
-130 -77 -132 0 -2 96 52 213 121 l212 124 7 -63 c3 -34 7 -94 9 -134 2 -65
-1 -76 -30 -123 l-32 -53 12 -67 c10 -60 9 -82 -10 -189 -19 -104 -87 -317
-111 -344 -7 -8 -211 5 -450 31 l-165 18 -270 -27 -270 -26 -95 47 c-98 49
-187 70 -359 86 l-73 7 -81 164 c-44 90 -78 165 -76 167 2 2 81 -21 174 -50
94 -28 262 -80 375 -114 113 -34 245 -74 295 -90 49 -16 91 -27 93 -26 1 2
-121 85 -273 185 -151 100 -275 183 -275 185 0 4 284 1 833 -8 131 -2 236 -2
234 1 -3 2 -45 15 -94 29 -78 22 -714 124 -770 124 -13 0 -23 4 -23 8 0 13
128 86 220 124 69 30 455 160 735 248 92 30 275 74 324 79 7 0 -4 -20 -25 -46z
m569 -88 c20 -14 37 -29 37 -33 0 -58 -48 -235 -120 -445 -87 -252 -91 -259
-161 -357 -40 -55 -74 -98 -75 -97 -2 1 18 86 44 187 41 159 53 193 88 245
l40 60 -18 48 c-16 42 -17 57 -7 120 15 95 65 235 97 270 14 15 28 27 32 27 3
0 22 -11 43 -25z m227 -145 c30 -30 24 -67 -22 -150 -39 -71 -135 -180 -158
-180 -17 0 -2 68 26 116 13 23 47 62 76 88 52 45 53 46 24 46 -34 0 -66 25
-66 51 0 47 82 67 120 29z m-3024 -487 c28 -47 114 -304 114 -340 0 -21 -4
-24 -32 -21 -29 3 -35 9 -51 52 -9 26 -39 73 -66 102 -95 108 -111 178 -55
251 25 33 26 34 46 16 11 -10 31 -37 44 -60z m-244 -140 c21 -22 27 -42 33
-98 3 -38 13 -96 21 -129 9 -32 12 -62 7 -67 -4 -4 -60 -27 -124 -51 -103 -38
-573 -277 -564 -286 2 -2 113 19 247 46 345 72 344 71 442 74 l89 3 23 -75
c24 -77 24 -130 -1 -130 -7 0 -59 5 -115 10 -56 6 -104 9 -106 7 -3 -2 37 -19
88 -37 119 -42 172 -72 187 -107 21 -51 42 -196 48 -335 7 -154 0 -176 -60
-203 -18 -8 -115 -52 -217 -99 -199 -91 -244 -105 -281 -86 -77 40 -91 87 -59
191 11 39 19 73 16 76 -3 3 -21 -4 -40 -15 -37 -22 -46 -20 -46 12 0 30 -89
109 -163 145 -37 17 -70 31 -73 31 -3 0 24 -43 60 -95 35 -52 62 -95 60 -95
-3 0 -100 65 -217 144 l-212 144 -332 138 c-183 76 -331 140 -329 141 8 9 849
-123 1226 -192 20 -3 -468 246 -505 258 -5 2 17 44 49 93 58 87 65 94 310 282
219 168 463 329 502 331 5 1 22 -11 36 -26z m1125 -349 c12 -3 24 -13 27 -21
12 -29 -202 -333 -234 -333 -12 0 -60 115 -72 172 -11 52 -6 110 11 137 23 35
195 64 268 45z m903 -59 c80 -13 192 -27 250 -30 149 -8 168 -12 175 -36 11
-34 -31 -67 -172 -136 -138 -68 -195 -83 -232 -63 -26 14 -221 273 -221 294 0
3 12 3 28 1 15 -3 92 -16 172 -30z m-1510 -54 c14 -10 45 -52 70 -93 25 -41
76 -110 114 -154 120 -138 141 -217 73 -281 -30 -29 -106 -73 -126 -73 -5 0
-30 62 -56 138 -59 174 -56 170 -89 148 -22 -14 -33 -15 -66 -6 -22 6 -52 21
-67 35 -28 23 -28 24 -26 135 3 127 13 154 66 169 39 11 74 5 107 -18z m1199
-138 c130 -75 161 -99 161 -127 0 -24 -39 -46 -135 -76 -125 -39 -285 -161
-298 -229 -16 -79 -4 -160 40 -273 22 -58 24 -70 12 -84 -19 -23 -90 -14 -221
29 -58 20 -146 43 -194 52 -107 20 -154 38 -154 60 0 10 39 53 88 98 48 44
123 117 167 162 86 86 284 333 337 419 l33 53 34 -14 c18 -8 77 -39 130 -70z
m-3289 -18 c235 -27 738 -142 775 -177 6 -6 5 -7 -5 -4 -51 17 -586 130 -740
156 -102 17 -189 32 -195 35 -22 8 46 4 165 -10z m188 -261 c134 -53 342 -167
329 -181 -2 -1 -83 29 -181 67 -98 39 -208 75 -244 81 -62 10 -70 15 -110 60
l-42 48 91 -25 c50 -13 121 -36 157 -50z m3861 25 c171 -33 440 -111 481 -140
12 -8 11 -9 -5 -5 -38 10 -280 68 -515 122 -217 50 -228 54 -151 49 46 -3 131
-15 190 -26z m-4435 5 c18 -18 21 -56 6 -84 -14 -26 -85 -67 -148 -85 -51 -15
-246 -34 -356 -35 l-60 0 35 26 c49 37 175 99 303 150 121 47 192 56 220 28z
m2429 -35 c28 -22 61 -87 78 -155 18 -71 -28 -161 -102 -199 l-28 -15 -5 43
c-3 23 -10 103 -17 177 -11 133 -11 134 11 152 28 23 32 22 63 -3z m1822 -79
c39 -12 71 -24 73 -25 1 -1 -7 -23 -18 -49 l-20 -47 -51 43 c-59 50 -102 119
-66 106 6 -3 44 -15 82 -28z m-3966 -77 c36 -72 48 -191 21 -208 -4 -2 -15 42
-24 98 -10 56 -20 112 -23 125 -8 34 4 26 26 -15z m-313 -41 c-28 -54 -119
-133 -221 -192 -39 -22 -27 -10 180 182 48 45 61 48 41 10z m4858 -22 c93 -28
171 -52 173 -53 2 -2 -81 -21 -184 -41 -104 -21 -225 -46 -271 -56 -82 -17
-83 -17 -97 4 -20 27 -20 27 18 111 28 65 35 74 62 78 89 12 135 5 299 -43z
m-4098 16 c179 -20 276 -45 389 -100 77 -37 204 -131 192 -142 -2 -2 -156 10
-342 26 -187 17 -344 30 -350 29 -5 0 127 -47 295 -103 l305 -103 -185 -7
c-102 -4 -234 -13 -295 -21 -139 -19 -216 -19 -240 -1 -17 12 -19 26 -17 137
1 68 -2 140 -7 159 -6 19 -16 54 -22 77 -11 34 -10 44 1 58 16 19 18 19 276
-9z m3169 -69 c22 -17 82 -71 133 -121 116 -114 119 -137 22 -186 -21 -11 -60
-44 -86 -75 -53 -61 -96 -81 -152 -70 -83 15 -162 81 -162 133 0 15 9 46 20
69 10 23 35 95 55 159 20 64 41 128 46 141 l9 25 38 -23 c20 -12 55 -36 77
-52z m-1185 -7 c8 -14 7 -29 -4 -54 -16 -39 -34 -51 -99 -66 -91 -20 -128 27
-67 85 58 56 149 74 170 35z m2735 -110 c98 -25 173 -62 226 -110 39 -35 41
-40 19 -35 -35 7 -716 105 -730 105 -50 0 93 49 185 64 56 8 225 -5 300 -24z
m-2847 -190 c2 -14 -13 -83 -33 -154 -25 -93 -35 -150 -35 -202 0 -53 -4 -77
-16 -88 -20 -20 -27 -20 -54 2 -16 13 -24 35 -31 87 -5 39 -13 88 -19 110 -14
57 -12 140 4 178 17 41 45 65 93 83 56 20 87 15 91 -16z m-360 -102 c15 -15
16 -102 1 -130 -16 -29 -72 -49 -118 -42 -36 6 -42 3 -106 -55 -72 -65 -108
-77 -137 -43 -21 24 -58 98 -58 117 0 21 48 49 145 84 44 17 107 41 140 55 65
28 114 33 133 14z m811 -82 c42 -44 141 -186 141 -201 0 -29 -43 -45 -120 -45
-69 0 -79 2 -101 26 -23 24 -24 34 -27 161 l-4 135 41 -23 c22 -12 53 -36 70
-53z m1051 14 c14 -14 20 -33 20 -65 0 -25 -2 -45 -5 -45 -15 0 -73 29 -88 44
-22 22 -22 62 1 75 26 16 50 13 72 -9z m-595 -84 c28 -12 56 -30 63 -39 32
-38 -10 -75 -95 -85 -38 -4 -46 -1 -78 31 -36 36 -43 64 -25 98 15 27 72 25
135 -5z m-1746 -88 c17 -17 36 -47 42 -66 11 -32 10 -37 -10 -53 -52 -42 -298
-88 -316 -59 -3 5 6 31 21 57 66 114 113 152 190 153 34 0 48 -6 73 -32z m485
-15 c4 -21 9 -46 12 -56 5 -16 -3 -18 -95 -16 -56 1 -101 4 -101 8 0 6 159 99
171 100 4 1 10 -16 13 -36z m1762 -74 l42 -11 11 -78 c11 -76 11 -84 -28 -252
-39 -170 -84 -298 -94 -268 -5 15 -37 237 -37 258 0 6 15 14 33 17 51 11 51
14 -14 57 -66 44 -114 108 -125 166 -5 26 -1 40 15 62 11 16 21 34 21 39 0 5
-20 24 -45 42 -25 18 -45 36 -45 40 0 4 51 -8 113 -27 61 -19 131 -39 153 -45z
m-306 -97 c14 -11 29 -31 35 -47 8 -23 6 -30 -14 -46 -32 -26 -85 -24 -148 5
-85 40 -84 96 0 114 48 10 90 1 127 -26z m-601 -153 c67 -10 121 -33 121 -50
0 -5 -17 -17 -37 -26 -29 -12 -58 -14 -123 -10 -112 8 -175 27 -175 52 0 42
84 56 214 34z m590 -50 c61 -10 93 -28 117 -64 19 -29 32 -145 16 -145 -6 0
-38 30 -71 68 -39 43 -61 61 -61 50 0 -14 -8 -18 -37 -18 -98 0 -239 35 -283
70 l-25 20 33 -6 c25 -5 32 -3 32 10 0 33 129 41 279 15z m-753 -201 l83 -61
-36 -66 c-21 -36 -70 -118 -111 -181 -98 -151 -218 -372 -247 -455 -12 -36
-25 -69 -29 -72 -3 -4 -6 181 -6 411 0 386 6 471 25 370 3 -20 15 -65 26 -100
l20 -65 39 28 c32 23 49 50 91 141 29 61 54 112 57 112 2 0 42 -28 88 -62z
m252 -135 c4 -28 -125 -221 -171 -256 -46 -35 -97 -60 -97 -47 0 29 136 245
193 308 27 30 71 27 75 -5z m-770 -155 c29 -221 62 -521 57 -526 -11 -11 -60
182 -83 329 -24 152 -26 186 -18 272 5 53 12 97 15 97 3 0 16 -78 29 -172z
m1232 30 c94 -24 158 -60 166 -94 9 -34 -10 -102 -61 -219 -63 -147 -69 -173
-59 -290 20 -224 14 -260 -77 -542 -27 -83 -49 -160 -49 -170 0 -10 -11 -41
-24 -70 -30 -64 -45 -68 -226 -61 -158 7 -186 18 -183 71 l2 38 -90 -63 -91
-62 -142 74 c-77 40 -146 77 -152 82 -7 5 -15 33 -18 62 -6 41 4 121 44 350
l51 298 56 113 57 113 250 91 c138 50 279 100 314 112 35 12 62 23 60 25 -2 2
-94 -19 -203 -45 -259 -63 -265 -65 -265 -53 0 25 85 113 147 154 167 110 308
135 493 86z m340 -1359 c30 -12 89 -45 130 -73 41 -27 99 -60 128 -72 l52 -21
-112 -50 c-111 -50 -113 -50 -134 -32 -25 23 -54 25 -54 3 0 -9 12 -38 27 -64
24 -43 26 -51 15 -86 -17 -57 -62 -106 -131 -143 l-61 -32 -9 23 c-5 13 -12
51 -16 85 -7 67 -30 107 -68 119 -28 8 -57 33 -57 49 0 6 18 36 40 65 38 50
40 58 40 122 0 70 10 102 39 126 22 18 103 9 171 -19z m-1249 -118 c50 -22 99
-47 110 -57 33 -30 24 -63 -31 -116 -56 -54 -70 -59 -70 -23 0 29 -40 59 -68
51 -17 -6 -20 0 -26 56 -4 35 -9 78 -13 96 -3 17 -3 32 1 32 3 0 47 -18 97
-39z m492 -90 c149 -38 217 -82 217 -137 0 -13 -20 -70 -43 -127 -24 -56 -63
-163 -87 -237 -63 -202 -89 -240 -163 -240 l-39 0 6 -52 c18 -165 18 -172 -3
-220 -11 -27 -24 -48 -30 -48 -5 0 -71 -6 -147 -14 -77 -8 -187 -18 -246 -21
l-108 -7 0 101 c0 84 8 137 45 303 25 111 45 225 45 254 0 100 5 109 89 160
127 79 120 72 83 85 -18 6 -32 17 -32 24 0 41 133 166 195 184 51 15 138 12
218 -8z m1254 -15 c18 -3 79 -28 136 -56 58 -27 165 -71 239 -96 73 -25 160
-57 193 -72 l60 -27 -45 -5 c-42 -5 -34 -8 110 -44 179 -45 819 -263 1090
-370 168 -67 182 -75 150 -79 -19 -3 -249 -18 -510 -32 -480 -26 -740 -47
-795 -64 l-30 -8 30 -13 c17 -7 110 -16 220 -21 162 -8 417 -27 1324 -101 143
-11 144 -12 121 -30 -12 -10 -116 -65 -230 -123 -149 -75 -238 -127 -321 -188
-217 -160 -265 -177 -590 -202 -226 -17 -331 -34 -401 -64 l-43 -18 75 -7 c41
-4 222 -15 402 -26 296 -18 572 -48 622 -69 14 -5 -6 -12 -70 -26 -274 -56
-698 -187 -943 -290 -205 -86 -541 -258 -529 -271 2 -1 195 40 428 92 435 97
677 147 881 184 126 22 462 70 466 66 1 -1 -147 -96 -330 -210 -182 -115 -323
-206 -312 -203 11 2 103 32 205 65 179 59 635 206 675 218 18 6 17 3 -5 -21
-14 -14 -58 -51 -97 -81 -40 -30 -107 -80 -149 -111 -88 -66 -214 -196 -281
-291 -49 -67 -136 -232 -128 -240 6 -6 122 59 220 122 178 115 265 160 314
160 43 1 46 -1 58 -34 6 -19 12 -66 12 -104 1 -85 -12 -107 -113 -190 -71 -58
-259 -237 -254 -241 2 -2 56 13 122 32 65 19 120 32 122 30 2 -2 6 -17 9 -33
4 -25 -3 -38 -57 -96 l-63 -68 -95 10 c-52 5 -270 19 -485 31 -412 22 -520 20
-779 -16 l-98 -14 -137 69 c-75 38 -127 69 -116 69 11 1 103 -6 204 -14 330
-27 1283 -46 1295 -26 16 25 -65 51 -429 141 -493 122 -792 175 -1058 187 -81
3 -144 10 -140 14 29 29 190 92 473 184 361 118 402 133 397 149 -5 16 -99 19
-207 6 -193 -23 -406 -65 -737 -145 -166 -41 -179 -34 -211 127 -26 126 -75
221 -151 290 l-56 51 -10 -154 c-10 -145 -12 -157 -39 -196 -16 -24 -31 -43
-33 -43 -18 0 -80 45 -157 114 -100 90 -285 225 -413 302 l-82 49 -5 50 c-3
28 -7 85 -10 127 l-4 77 66 -25 c37 -14 114 -43 172 -64 58 -21 118 -43 134
-49 52 -20 13 12 -131 110 -143 98 -189 138 -204 176 -13 36 -11 129 4 141 52
42 271 8 742 -118 186 -50 278 -70 465 -106 64 -12 -222 127 -415 201 -153 59
-278 98 -500 156 -206 53 -290 87 -301 121 -18 59 62 72 473 72 154 1 279 4
277 8 -15 25 -183 59 -448 93 -115 14 -224 32 -241 40 -57 23 -58 64 -3 158
18 31 58 102 88 159 73 137 176 245 265 277 91 33 104 42 114 78 6 21 41 67
89 117 49 52 89 106 106 142 47 101 79 121 206 134 64 7 75 6 137 -4z m-753
-178 c20 -30 38 -147 30 -189 -16 -79 -86 -164 -173 -208 -48 -25 -48 -27 -27
89 15 83 98 309 118 322 22 13 37 9 52 -14z m3176 -1035 c-1 -5 -18 -38 -38
-74 -25 -45 -61 -86 -113 -132 l-75 -66 -287 -3 c-157 -2 -283 0 -279 3 4 3
135 57 292 120 187 74 319 121 385 135 120 26 115 26 115 17z m-5870 -27 c0
-2 -42 -30 -92 -61 -51 -32 -149 -99 -216 -148 -68 -49 -160 -109 -203 -133
l-80 -43 -92 38 c-51 20 -161 78 -246 128 -127 76 -150 93 -130 97 13 3 249
30 524 61 275 31 505 58 510 60 14 5 25 6 25 1z m6474 -58 c33 -18 81 -53 105
-76 41 -42 43 -46 36 -85 -4 -23 -6 -72 -5 -108 1 -74 -11 -93 -57 -87 -26 3
-28 7 -28 43 0 22 4 50 8 63 7 18 5 22 -13 22 -73 0 -119 72 -120 188 0 39 3
72 6 72 3 0 34 -15 68 -32z m-5522 -48 l93 -50 -43 0 c-43 0 -71 -19 -98 -65
-9 -17 -14 -7 -29 60 -9 44 -20 85 -22 92 -8 20 -1 17 99 -37z m5281 41 c29
-11 92 -104 114 -167 8 -25 13 -47 11 -49 -3 -3 -42 9 -87 25 -79 29 -154 41
-168 27 -3 -4 4 -18 17 -32 24 -26 103 -55 149 -55 26 0 91 -54 91 -77 0 -25
-41 -36 -110 -29 -86 8 -245 48 -299 75 -73 38 -53 73 113 197 136 102 131 99
169 85z m-6013 -223 c-18 -73 -43 -154 -56 -180 l-24 -47 -92 31 c-51 17 -95
33 -98 35 -2 2 63 71 145 153 82 82 151 147 153 145 3 -2 -10 -64 -28 -137z
m-1840 -52 c91 -19 219 -46 285 -60 161 -34 259 -45 455 -51 179 -6 200 -9
200 -30 0 -36 -79 -47 -225 -29 -66 7 -196 14 -290 14 -239 0 -393 27 -515 91
-56 29 -84 50 -109 82 -12 15 -11 17 10 17 13 0 98 -15 189 -34z m3285 -40
c31 -16 57 -47 112 -131 99 -152 137 -200 185 -235 23 -17 43 -29 44 -27 2 2
-1 70 -7 151 -6 81 -9 150 -6 152 12 12 88 -19 106 -43 25 -31 28 -126 9 -355
l-11 -147 -49 26 c-52 28 -419 362 -481 436 -44 55 -57 85 -57 137 0 72 62 86
155 36z m-635 -75 c58 -35 271 -235 277 -260 3 -13 0 -38 -7 -55 -23 -54 -22
-155 4 -366 28 -224 34 -409 13 -450 -17 -35 -61 -53 -128 -54 -81 -1 -111 30
-154 164 -10 30 -42 107 -71 170 -55 120 -72 170 -58 170 5 0 58 -16 118 -35
61 -19 111 -33 113 -31 2 1 -55 45 -127 96 -199 142 -247 204 -270 343 -11 72
-14 277 -2 277 4 -1 52 -58 106 -127 l99 -126 18 24 c16 20 19 43 19 152 0 76
4 127 10 127 5 0 23 -8 40 -19z m-1046 -271 c94 -36 131 -94 86 -135 -11 -10
-21 -16 -23 -14 -2 2 -27 36 -57 74 -75 97 -73 95 -67 95 4 0 31 -9 61 -20z
m6529 -171 c70 -97 133 -159 165 -159 5 0 16 16 25 35 12 26 17 62 17 131 l0
95 78 -62 c106 -85 151 -129 169 -163 13 -25 13 -30 0 -43 -21 -21 -370 -103
-449 -106 -84 -3 -94 7 -137 126 -33 94 -37 129 -20 174 10 27 57 83 68 83 3
0 41 -50 84 -111z m-7564 -18 c-82 -89 -112 -107 -181 -104 -77 3 -114 30 -96
68 13 29 66 58 157 86 66 19 180 39 190 32 2 -1 -30 -38 -70 -82z m2814 -55
c107 -52 205 -106 251 -141 42 -32 76 -59 76 -61 0 -2 -14 -66 -31 -142 -23
-106 -29 -150 -24 -193 l7 -55 -49 -11 c-66 -16 -403 -5 -410 12 -2 7 -10 50
-16 96 -9 65 -10 140 0 329 6 135 12 246 12 248 2 5 13 0 184 -82z m-1296 33
c54 -17 129 -47 166 -67 77 -39 101 -69 160 -196 21 -44 60 -120 88 -169 59
-105 99 -204 99 -247 0 -30 0 -30 -29 -16 -50 26 -138 115 -205 205 -69 95
-111 135 -166 160 -66 30 -107 61 -132 98 -97 144 -149 235 -144 248 8 23 55
18 163 -16z m-244 -18 c29 -11 177 -244 164 -258 -13 -13 -184 85 -232 133
-73 72 -25 160 68 125z m2180 -60 c57 -40 109 -95 221 -236 60 -75 96 -129 96
-144 0 -23 -2 -24 -62 -19 -81 7 -209 59 -252 104 -18 19 -38 51 -44 73 -12
38 -17 251 -6 251 3 0 24 -13 47 -29z m3537 -93 c-4 -18 -18 -77 -31 -131 -22
-95 -24 -98 -80 -151 l-57 -54 -7 50 c-18 127 -4 209 41 250 29 25 107 68 125
68 14 0 15 -6 9 -32z m-3213 -419 c239 -99 265 -112 257 -133 -10 -27 -95 -41
-249 -41 -136 0 -155 2 -202 23 -75 34 -95 61 -104 134 -4 34 -3 72 2 85 15
41 62 30 296 -68z m-1422 -205 c8 -4 22 -19 30 -35 36 -69 0 -129 -81 -136
-47 -5 -52 -3 -77 27 -42 49 -33 120 16 140 26 10 89 13 112 4z m597 -39 c131
-20 148 -24 148 -40 0 -19 -72 -44 -162 -56 -97 -14 -262 3 -290 28 -23 21
-23 59 0 72 26 15 189 13 304 -4z m582 -172 c-4 -10 -10 -80 -13 -156 -5 -122
-8 -140 -25 -153 -21 -15 -52 -10 -75 12 -17 16 -26 114 -17 179 8 52 45 101
91 121 41 18 49 17 39 -3z m1024 -178 c28 -9 65 -28 83 -42 l32 -27 -6 -95
c-4 -51 -9 -96 -12 -99 -6 -7 -585 90 -585 97 0 8 151 102 209 131 107 53 184
63 279 35z m-1444 -21 c39 -38 8 -85 -71 -107 -132 -36 -353 -50 -353 -22 0
23 206 114 315 138 45 10 94 6 109 -9z m2447 -94 c74 -34 234 -95 357 -137
l222 -76 0 -47 c0 -47 -3 -51 -87 -143 -49 -52 -91 -96 -94 -96 -4 -1 9 52 27
116 19 64 33 118 31 119 -1 2 -32 -15 -67 -38 l-64 -40 -22 27 -21 27 -5 -46
c-3 -25 -11 -53 -18 -61 -9 -11 -12 -61 -11 -183 l1 -167 -38 -44 -39 -44 -59
33 c-64 36 -436 292 -431 296 2 2 79 -19 171 -47 93 -27 170 -48 172 -46 2 2
-58 46 -134 98 l-137 94 2 43 c1 23 -3 42 -8 42 -5 0 -9 -4 -9 -8 0 -5 -6 -16
-13 -26 -13 -18 -17 -17 -68 16 -48 31 -63 50 -126 157 -39 66 -69 121 -66
121 3 0 110 -40 237 -89 206 -79 325 -121 347 -121 4 0 2 14 -4 31 -7 18 -55
68 -122 126 -101 87 -164 155 -165 177 -1 23 115 -8 241 -64z m736 34 c21 -6
22 -8 8 -34 l-15 -29 -101 34 c-56 19 -105 38 -108 41 -7 8 183 -3 216 -12z
m-3239 -228 c20 -7 38 -20 40 -29 6 -29 -66 -92 -175 -155 -123 -70 -162 -82
-196 -59 -29 18 -97 145 -97 179 0 40 40 68 111 78 81 11 267 3 317 -14z
m-735 -76 c32 -28 34 -34 44 -122 6 -56 6 -151 1 -237 l-8 -144 -77 -81 c-43
-44 -116 -128 -162 -186 -46 -58 -90 -112 -98 -120 -12 -13 -13 5 -7 125 6
140 6 141 97 448 l91 309 36 18 c46 25 44 25 83 -10z m3968 -69 c16 -54 5 -92
-93 -336 -45 -110 -96 -243 -114 -295 -31 -88 -33 -100 -27 -190 7 -108 1
-124 -65 -199 l-39 -45 -52 110 c-43 89 -55 126 -65 202 l-13 93 134 184 c74
102 146 213 161 248 31 72 143 267 154 267 4 0 12 -18 19 -39z m-1768 -17
c105 -25 255 -66 331 -91 l139 -46 90 -81 c49 -44 106 -94 125 -110 l35 -30
-7 50 c-7 48 -6 49 11 27 131 -158 181 -228 242 -336 l72 -127 -22 -73 c-16
-54 -47 -112 -122 -227 -134 -207 -137 -210 -68 -56 17 38 30 71 27 73 -2 2
-22 -5 -45 -16 -22 -12 -47 -21 -55 -21 -8 0 -33 21 -55 48 l-41 47 0 -72 c0
-40 -2 -73 -6 -73 -3 0 -36 25 -74 55 -38 30 -71 55 -74 55 -2 0 31 -77 74
-172 l79 -172 -18 -31 c-54 -90 -73 -134 -121 -280 -38 -116 -277 -712 -294
-732 -7 -9 -186 84 -355 185 -209 125 -343 185 -619 277 -62 21 -124 49 -138
62 -24 22 -25 26 -11 46 8 12 32 28 53 36 35 12 78 9 444 -32 223 -25 407 -43
409 -41 2 2 -43 26 -99 54 -127 62 -366 141 -563 186 -165 38 -176 42 -206 80
-27 34 -27 100 -2 231 11 54 24 150 31 213 8 88 20 142 50 230 22 62 40 121
40 129 0 8 -12 30 -27 50 -23 29 -28 46 -28 92 0 51 5 64 48 127 60 88 185
208 244 234 84 37 127 15 225 -115 85 -113 288 -313 376 -371 40 -27 74 -47
76 -45 2 2 -35 121 -81 264 l-85 260 -97 130 c-106 142 -115 155 -106 155 3 0
92 -21 198 -46z m-1008 -10 l27 -46 -5 -262 c-4 -230 -7 -269 -25 -326 l-21
-64 22 -76 c22 -72 22 -83 14 -268 -7 -159 -14 -221 -42 -350 l-33 -157 -1
361 -1 362 -35 96 c-35 96 -35 99 -35 259 0 90 5 224 11 298 l10 134 42 43
c23 23 42 42 43 42 1 0 14 -21 29 -46z m-421 -420 c-30 -142 -60 -285 -66
-316 -10 -50 -15 -58 -34 -58 -18 0 -24 7 -29 33 -9 51 -10 119 -2 162 8 40 7
40 -41 73 -49 33 -49 33 -70 129 -12 53 -20 98 -18 100 6 6 311 141 313 139 2
-1 -22 -119 -53 -262z m-384 -32 c5 -20 10 -64 10 -97 0 -52 5 -69 35 -115 21
-34 54 -117 85 -215 75 -236 126 -386 165 -486 59 -151 47 -181 -86 -210 -119
-26 -160 -25 -189 6 -23 24 -23 27 -10 94 14 74 12 88 -18 171 -60 161 -88
339 -97 595 -7 221 0 285 34 302 34 16 58 1 71 -45z m-330 -426 c0 -292 -2
-333 -20 -411 l-21 -86 41 -73 c39 -71 40 -76 40 -167 l0 -93 -51 49 c-86 84
-195 235 -215 298 -13 43 -22 56 -33 53 -63 -19 -68 -18 -81 13 -18 45 -7 72
60 148 120 136 230 404 230 559 0 30 3 34 25 34 l25 0 0 -324z m3358 -42 c30
-21 72 -106 72 -146 0 -42 -64 -104 -180 -175 -100 -60 -151 -77 -176 -58 -16
12 -16 14 3 51 37 73 194 319 210 332 22 16 44 15 71 -4z m-4326 -378 c14 -8
61 -43 105 -78 43 -36 125 -100 182 -144 57 -43 113 -87 125 -97 21 -19 21
-19 -9 -12 -58 12 -151 63 -240 130 -49 38 -126 91 -170 118 -91 56 -101 67
-78 85 22 16 52 15 85 -2z m504 -1 c44 -18 295 -269 353 -354 l44 -64 -54 7
-54 7 80 -46 c75 -42 155 -112 155 -134 0 -13 -64 14 -115 49 -59 40 -118 69
-189 90 -89 28 -113 50 -161 155 -28 60 -63 114 -99 155 -68 76 -78 106 -46
132 27 22 40 22 86 3z m1063 -626 c69 -28 129 -54 133 -58 4 -4 3 -61 -3 -128
l-10 -122 45 -78 c42 -72 50 -98 91 -292 26 -117 45 -214 43 -216 -2 -2 -38
75 -82 171 -77 172 -79 175 -156 247 -93 87 -223 270 -280 393 -37 79 -39 91
-29 117 12 29 14 29 67 23 30 -4 111 -29 181 -57z"/>
<path d="M8290 3056 c0 -8 5 -18 10 -21 6 -3 10 1 10 9 0 8 -4 18 -10 21 -5 3
-10 -1 -10 -9z"/>
</g>
</svg>
